<?xml version="1.0" encoding="UTF-8" standalone="no"?>
<svg xmlns="http://www.w3.org/2000/svg" width="1572.178" height="1706.68" viewBox="0 0 1572.178 1706.68">
  <g id="Layer_x0020_1" transform="translate(-713.906 -646.66)">
    <path id="Path_233" data-name="Path 233" d="M1395.97,2300h164V1922.63h-164Zm190.67,53.34H1369.31a26.669,26.669,0,0,1-26.67-26.67V1895.96a26.669,26.669,0,0,1,26.67-26.67h217.33a26.669,26.669,0,0,1,26.67,26.67v430.71A26.669,26.669,0,0,1,1586.64,2353.34Zm-26.67-755.72v-59.26h-164v59.26Zm53.34-85.93v112.6a26.669,26.669,0,0,1-26.67,26.67H1369.31a26.669,26.669,0,0,1-26.67-26.67v-112.6a26.669,26.669,0,0,1,26.67-26.67h217.33A26.669,26.669,0,0,1,1613.31,1511.69Zm-53.34-298.34v-59.26h-164v59.26Zm53.34-85.93v112.6a26.669,26.669,0,0,1-26.67,26.67H1369.31a26.669,26.669,0,0,1-26.67-26.67v-112.6a26.669,26.669,0,0,1,26.67-26.67h217.33A26.669,26.669,0,0,1,1613.31,1127.42Zm-53.34-298.34V782a82.284,82.284,0,0,0-81.99-81.99h-.01a82.319,82.319,0,0,0-82,82v47.08h164ZM1613.31,782v73.75a26.669,26.669,0,0,1-26.67,26.67H1369.31a26.669,26.669,0,0,1-26.67-26.67V782a135.682,135.682,0,0,1,135.34-135.34h.01a135.648,135.648,0,0,1,135.33,135.33Z" fill="#131313"/>
    <path id="Path_234" data-name="Path 234" d="M1720.37,882.41H1001.45L796.97,991.58l204.46,109.17H1716.6c21.86,0,36.85-26.33,44.36-59.94a239.356,239.356,0,0,0,.05-99.76c-7.23-32.95-21.19-58.63-40.65-58.63Zm-65.25-53.34h65.25c49.5,0,80.31,44.12,92.74,100.72a296.157,296.157,0,0,1-.26,122.47c-12.77,57.09-44.35,101.82-96.24,101.82H994.99a26.583,26.583,0,0,1-12.56-3.15l.05-.09L730.12,1016.1a26.663,26.663,0,0,1-2.11-48.05l.06.09,252.31-134.7a26.535,26.535,0,0,1,14.63-4.37h660.11Z" fill="#131313"/>
    <path id="Path_235" data-name="Path 235" d="M1279.62,1485.02h718.92l204.49-109.17-204.47-109.17H1283.39c-21.86,0-36.85,26.33-44.36,59.94a239.356,239.356,0,0,0-.05,99.76c7.23,32.95,21.19,58.63,40.65,58.63Zm65.25,53.34h-65.25c-49.5,0-80.31-44.12-92.74-100.72a296.157,296.157,0,0,1,.26-122.47c12.77-57.09,44.35-101.82,96.24-101.82H2005a26.583,26.583,0,0,1,12.56,3.15l-.05.09,252.36,134.74a26.663,26.663,0,0,1,2.11,48.05l-.06-.09-252.32,134.7a26.527,26.527,0,0,1-14.62,4.37H1344.87Z" fill="#131313"/>
    <path id="Path_236" data-name="Path 236" d="M1720.37,1650.96H1001.45L796.97,1760.13l204.46,109.17H1716.6c21.86,0,36.85-26.33,44.36-59.94a239.356,239.356,0,0,0,.05-99.76c-7.23-32.95-21.19-58.63-40.65-58.63Zm-65.25-53.34h65.25c49.5,0,80.31,44.12,92.74,100.72a296.157,296.157,0,0,1-.26,122.47c-12.77,57.09-44.35,101.82-96.24,101.82H994.99a26.583,26.583,0,0,1-12.56-3.15l.05-.09L730.12,1784.65a26.663,26.663,0,0,1-2.11-48.05l.06.09,252.31-134.7a26.535,26.535,0,0,1,14.63-4.37h660.11Z" fill="#131313"/>
    <path id="Path_237" data-name="Path 237" d="M1559.97,2300V1922.63h-164V2300Z" fill="#ababab" fill-rule="evenodd"/>
    <path id="Path_238" data-name="Path 238" d="M1369.3,1869.29h347.3c21.86,0,36.85-26.33,44.36-59.94a239.356,239.356,0,0,0,.05-99.76c-7.23-32.95-21.19-58.63-40.65-58.63H1001.44L796.96,1760.13l204.46,109.17h367.87Z" fill="#cdcdce" fill-rule="evenodd"/>
    <path id="Path_239" data-name="Path 239" d="M1395.97,1597.62h164v-59.26h-164Z" fill="#ababab" fill-rule="evenodd"/>
    <path id="Path_240" data-name="Path 240" d="M1395.97,1213.35h164v-59.26h-164Z" fill="#ababab" fill-rule="evenodd"/>
    <path id="Path_241" data-name="Path 241" d="M1586.64,1266.69H1283.39c-21.86,0-36.85,26.33-44.36,59.94a239.356,239.356,0,0,0-.05,99.76c7.23,32.95,21.19,58.63,40.65,58.63h718.92l204.49-109.17-204.47-109.17H1586.65Z" fill="#909090" fill-rule="evenodd"/>
    <path id="Path_242" data-name="Path 242" d="M1369.3,1100.75h347.3c21.86,0,36.85-26.33,44.36-59.94a239.356,239.356,0,0,0,.05-99.76c-7.23-32.95-21.19-58.63-40.65-58.63H1001.44L796.96,991.59l204.46,109.17h367.87Z" fill="#cdcdce" fill-rule="evenodd"/>
    <path id="Path_243" data-name="Path 243" d="M1395.97,829.07h164V781.99a82,82,0,0,0-164,.01v47.08Z" fill="#ababab" fill-rule="evenodd"/>
  </g>
</svg>